<svg width="17" height="20" viewBox="0 0 17 20" fill="none" xmlns="http://www.w3.org/2000/svg">
<path d="M8.50001 3.5154V0.56897L4.57144 4.49754L8.50001 8.42611V5.47968C11.7509 5.47968 14.3929 8.12165 14.3929 11.3725C14.3929 14.2895 12.2616 16.7056 9.48216 17.177V19.1609C13.3616 18.6797 16.3572 15.3797 16.3572 11.3725C16.3572 7.03147 12.8411 3.5154 8.50001 3.5154Z" fill="currentColor"/>
<path d="M2.60715 11.3725C2.60715 9.75199 3.26519 8.27878 4.33573 7.20824L2.94108 5.8136C1.5268 7.23771 0.642868 9.20199 0.642868 11.3725C0.642868 15.3797 3.6384 18.6797 7.51787 19.1609V17.177C4.7384 16.7056 2.60715 14.2895 2.60715 11.3725Z" fill="currentColor"/>
</svg>
