<svg width="24" height="20" viewBox="0 0 24 20" fill="none" xmlns="http://www.w3.org/2000/svg">
<path d="M12.0565 0L0 19.8904H3.48941C4.25503 19.8907 5.00776 19.6944 5.67472 19.3205C6.34168 18.9466 6.90029 18.4078 7.29647 17.7563L12.0282 9.94521L16.7059 17.7376C17.1007 18.3938 17.6599 18.9371 18.3287 19.3144C18.9976 19.6917 19.7534 19.8901 20.5224 19.8904H24L12.0565 0Z" fill="url(#paint0_linear_1_312)"/>
<path d="M12.0565 0L0 19.8904H3.48941C4.25503 19.8907 5.00775 19.6944 5.67472 19.3205C6.34168 18.9466 6.90029 18.4078 7.29647 17.7563L12.0282 9.94521C12.3611 9.48212 12.7978 9.10252 13.3039 8.8365C13.8099 8.57048 14.3713 8.42536 14.9435 8.41264C15.5157 8.39993 16.0831 8.51996 16.6005 8.76323C17.118 9.00651 17.5714 9.36633 17.9247 9.81416L18.0282 9.94521L12.0565 0Z" fill="url(#paint1_linear_1_312)"/>
<defs>
<linearGradient id="paint0_linear_1_312" x1="2540.4" y1="2743.88" x2="2027.42" y2="1443.03" gradientUnits="userSpaceOnUse">
<stop stop-color="#FF6CFF"/>
<stop offset="1" stop-color="#A200FF"/>
</linearGradient>
<linearGradient id="paint1_linear_1_312" x1="15.8871" y1="2.66298" x2="0.391762" y2="30.5984" gradientUnits="userSpaceOnUse">
<stop stop-color="#00DEFF"/>
<stop offset="1" stop-color="#3640EC"/>
</linearGradient>
</defs>
</svg>
